<svg xmlns="http://www.w3.org/2000/svg" xmlns:xlink="http://www.w3.org/1999/xlink" width="500" zoomAndPan="magnify" viewBox="0 0 375 374.999991" height="500" preserveAspectRatio="xMidYMid meet" version="1.0"><defs><g/></defs><rect x="-37.5" width="450" fill="#ffffff" y="-37.499999" height="449.999989" fill-opacity="1"/><rect x="-37.5" width="450" fill="#6a8970" y="-37.499999" height="449.999989" fill-opacity="1"/><g fill="#ffffff" fill-opacity="1"><g transform="translate(129.719279, 167.739517)"><g><path d="M 46.90625 -69.796875 C 46.90625 -69.867188 46.90625 -69.90625 46.90625 -69.90625 C 46.90625 -69.90625 46.9375 -69.90625 47 -69.90625 C 47 -69.96875 47 -70 47 -70 C 47.0625 -70 47.09375 -70 47.09375 -70 L 55.203125 -70 C 55.398438 -70 55.5 -69.898438 55.5 -69.703125 L 55.5 0 C 55.5 0.195312 55.398438 0.296875 55.203125 0.296875 L 47.09375 0.296875 C 46.894531 0.296875 46.796875 0.195312 46.796875 0 L 46.796875 -68 L 29.90625 -13.5 L 25.59375 0.09375 C 25.59375 0.226562 25.53125 0.296875 25.40625 0.296875 C 25.332031 0.296875 25.296875 0.296875 25.296875 0.296875 C 25.296875 0.296875 25.296875 0.265625 25.296875 0.203125 C 25.296875 0.203125 25.265625 0.203125 25.203125 0.203125 C 25.203125 0.203125 25.203125 0.164062 25.203125 0.09375 C 25.128906 0.09375 25.09375 0.09375 25.09375 0.09375 C 25.09375 0.03125 25.09375 0.03125 25.09375 0.09375 L 3.90625 -68 L 3.90625 0 C 3.90625 0.195312 3.835938 0.296875 3.703125 0.296875 C 3.503906 0.296875 3.40625 0.195312 3.40625 0 L 3.40625 -69.703125 C 3.40625 -69.628906 3.40625 -69.628906 3.40625 -69.703125 C 3.40625 -69.765625 3.40625 -69.796875 3.40625 -69.796875 C 3.40625 -69.796875 3.40625 -69.832031 3.40625 -69.90625 C 3.46875 -69.90625 3.5 -69.90625 3.5 -69.90625 C 3.4375 -69.90625 3.4375 -69.90625 3.5 -69.90625 C 3.5 -69.96875 3.5 -70 3.5 -70 C 3.5 -70 3.53125 -70 3.59375 -70 C 3.59375 -70 3.628906 -70 3.703125 -70 L 13.296875 -70 C 13.429688 -70 13.5 -69.898438 13.5 -69.703125 C 13.5 -69.566406 13.429688 -69.5 13.296875 -69.5 L 8.40625 -69.5 C 9.738281 -68.96875 10.953125 -68.148438 12.046875 -67.046875 C 13.148438 -65.953125 13.9375 -64.703125 14.40625 -63.296875 L 29.59375 -14.5 L 46.90625 -69.796875 C 46.832031 -69.796875 46.832031 -69.796875 46.90625 -69.796875 Z M 46.90625 -69.796875 "/></g></g></g><g fill="#ffffff" fill-opacity="1"><g transform="translate(182.830905, 205.760466)"><g><path d="M 3.703125 -69.5 C 3.503906 -69.5 3.40625 -69.566406 3.40625 -69.703125 C 3.40625 -69.898438 3.503906 -70 3.703125 -70 L 29.40625 -70 C 29.46875 -70 29.5 -70 29.5 -70 L 47.09375 -70 C 47.300781 -70 47.40625 -69.898438 47.40625 -69.703125 C 47.40625 -69.566406 47.300781 -69.5 47.09375 -69.5 L 29.703125 -69.5 L 29.703125 0 C 29.703125 0.195312 29.601562 0.296875 29.40625 0.296875 L 21.296875 0.296875 C 21.160156 0.296875 21.09375 0.195312 21.09375 0 L 21.09375 -69.5 Z M 3.703125 -69.5 "/></g></g></g><g fill="#ffffff" fill-opacity="1"><g transform="translate(59.742188, 252.760471)"><g><path d="M 1.140625 -20.546875 L 1.171875 -21 L 5.125 -21 L 12.296875 -5.796875 L 19.34375 -21 L 23.3125 -21 C 23.3125 -20.957031 23.320312 -20.882812 23.34375 -20.78125 C 23.363281 -20.6875 23.363281 -20.609375 23.34375 -20.546875 L 21.75 -20.375 C 21.550781 -20.351562 21.429688 -20.222656 21.390625 -19.984375 L 21.390625 -0.5625 L 23.609375 -0.453125 C 23.609375 -0.429688 23.597656 -0.28125 23.578125 0 L 17.546875 0.03125 L 17.578125 -0.390625 L 19.140625 -0.59375 C 19.335938 -0.613281 19.457031 -0.734375 19.5 -0.953125 L 19.5 -19.921875 L 12.65625 -5.125 L 12.0625 -3.9375 L 11.375 -3.9375 L 3.78125 -19.953125 L 3.78125 -0.625 L 7.203125 -0.453125 C 7.203125 -0.429688 7.191406 -0.28125 7.171875 0 L 1.140625 0.03125 L 1.171875 -0.390625 L 2.734375 -0.59375 C 2.929688 -0.613281 3.050781 -0.742188 3.09375 -0.984375 L 3.09375 -19.984375 C 3.050781 -20.222656 2.929688 -20.351562 2.734375 -20.375 Z M 1.140625 -20.546875 "/></g></g></g><g fill="#ffffff" fill-opacity="1"><g transform="translate(84.402167, 252.760471)"><g><path d="M 10.796875 -1.140625 L 10.703125 -1.140625 C 8.910156 -0.296875 7.160156 0.125 5.453125 0.125 C 2.796875 0.125 1.390625 -0.925781 1.234375 -3.03125 C 1.210938 -3.164062 1.203125 -3.296875 1.203125 -3.421875 C 1.203125 -4.960938 2.210938 -5.992188 4.234375 -6.515625 C 5.429688 -6.773438 7.585938 -7.082031 10.703125 -7.4375 L 10.703125 -10.078125 C 10.703125 -10.921875 10.601562 -11.640625 10.40625 -12.234375 C 10.207031 -12.835938 9.988281 -13.285156 9.75 -13.578125 C 9.507812 -13.867188 9.195312 -14.09375 8.8125 -14.25 C 8.332031 -14.445312 7.796875 -14.546875 7.203125 -14.546875 C 6.617188 -14.546875 5.945312 -14.394531 5.1875 -14.09375 C 4.09375 -13.632812 3.113281 -13.054688 2.25 -12.359375 L 2.125 -10.015625 L 1.5625 -9.875 L 1.5625 -13.5 L 1.859375 -13.625 C 3.421875 -14.300781 4.609375 -14.707031 5.421875 -14.84375 C 6.242188 -14.988281 6.84375 -15.066406 7.21875 -15.078125 C 7.601562 -15.085938 7.96875 -15.082031 8.3125 -15.0625 C 8.664062 -15.039062 9.125 -14.945312 9.6875 -14.78125 C 10.25 -14.625 10.734375 -14.398438 11.140625 -14.109375 C 11.554688 -13.828125 11.910156 -13.394531 12.203125 -12.8125 C 12.503906 -12.226562 12.65625 -11.535156 12.65625 -10.734375 L 12.65625 -1.5625 C 12.65625 -0.9375 12.816406 -0.625 13.140625 -0.625 L 14.96875 -0.546875 L 14.9375 -0.09375 C 13.820312 0.0703125 12.820312 0.15625 11.9375 0.15625 C 11.695312 0.132812 11.445312 0.0078125 11.1875 -0.21875 C 10.925781 -0.445312 10.796875 -0.753906 10.796875 -1.140625 Z M 6 -0.359375 C 7.476562 -0.359375 9.046875 -0.878906 10.703125 -1.921875 L 10.703125 -6.875 C 7.703125 -6.769531 5.816406 -6.59375 5.046875 -6.34375 C 4.285156 -6.09375 3.757812 -5.703125 3.46875 -5.171875 C 3.175781 -4.640625 3.03125 -4.113281 3.03125 -3.59375 C 3.03125 -3.5 3.03125 -3.398438 3.03125 -3.296875 C 3.09375 -2.253906 3.398438 -1.503906 3.953125 -1.046875 C 4.515625 -0.585938 5.195312 -0.359375 6 -0.359375 Z M 6 -0.359375 "/></g></g></g><g fill="#ffffff" fill-opacity="1"><g transform="translate(100.572152, 252.760471)"><g><path d="M 1.953125 7.5 L 1.984375 7.078125 L 3.546875 6.875 C 3.722656 6.851562 3.8125 6.710938 3.8125 6.453125 L 3.8125 -14.015625 C 3.769531 -14.171875 3.707031 -14.25 3.625 -14.25 L 1.796875 -14.3125 L 1.828125 -14.734375 C 3.085938 -14.910156 3.945312 -15 4.40625 -15 C 4.863281 -15 5.191406 -14.882812 5.390625 -14.65625 C 5.597656 -14.425781 5.722656 -14.171875 5.765625 -13.890625 C 7.023438 -14.804688 8.363281 -15.265625 9.78125 -15.265625 C 11.132812 -15.265625 12.414062 -14.847656 13.625 -14.015625 C 14.257812 -13.546875 14.769531 -12.820312 15.15625 -11.84375 C 15.550781 -10.863281 15.75 -9.675781 15.75 -8.28125 C 15.75 -5.625 15.085938 -3.625 13.765625 -2.28125 C 12.265625 -0.757812 10.328125 0 7.953125 0 C 7.253906 0 6.523438 -0.0507812 5.765625 -0.15625 L 5.765625 6.875 L 8.3125 7.015625 C 8.289062 7.296875 8.28125 7.445312 8.28125 7.46875 Z M 5.765625 -13.296875 L 5.765625 -0.78125 C 6.335938 -0.632812 6.96875 -0.5625 7.65625 -0.5625 C 9.613281 -0.5625 11.125 -1.226562 12.1875 -2.5625 C 13.257812 -3.894531 13.796875 -5.75 13.796875 -8.125 C 13.796875 -10.84375 13.257812 -12.675781 12.1875 -13.625 C 11.34375 -14.363281 10.398438 -14.734375 9.359375 -14.734375 C 8.316406 -14.734375 7.117188 -14.253906 5.765625 -13.296875 Z M 5.765625 -13.296875 "/></g></g></g><g fill="#ffffff" fill-opacity="1"><g transform="translate(117.672131, 252.760471)"><g><path d="M 5.734375 -21.265625 L 5.734375 -13.140625 C 8.347656 -14.941406 10.71875 -15.5 12.84375 -14.8125 C 13.320312 -14.675781 13.734375 -14.472656 14.078125 -14.203125 C 14.429688 -13.929688 14.738281 -13.523438 15 -12.984375 C 15.257812 -12.453125 15.390625 -11.804688 15.390625 -11.046875 L 15.390625 -0.59375 L 17.640625 -0.453125 C 17.640625 -0.429688 17.628906 -0.28125 17.609375 0 L 11.609375 0.03125 C 11.609375 -0.144531 11.617188 -0.285156 11.640625 -0.390625 L 13.203125 -0.59375 C 13.316406 -0.59375 13.394531 -0.6875 13.4375 -0.875 L 13.4375 -10.265625 C 13.4375 -11.046875 13.332031 -11.71875 13.125 -12.28125 C 12.914062 -12.851562 12.671875 -13.269531 12.390625 -13.53125 C 12.109375 -13.789062 11.78125 -13.988281 11.40625 -14.125 C 10.882812 -14.332031 10.421875 -14.414062 10.015625 -14.375 C 8.710938 -14.332031 7.285156 -13.800781 5.734375 -12.78125 L 5.734375 -0.59375 L 7.984375 -0.453125 C 7.984375 -0.429688 7.972656 -0.28125 7.953125 0 L 1.953125 0.03125 C 1.953125 -0.144531 1.960938 -0.285156 1.984375 -0.390625 L 3.546875 -0.59375 C 3.703125 -0.613281 3.78125 -0.753906 3.78125 -1.015625 L 3.78125 -21.421875 C 3.78125 -21.640625 3.71875 -21.75 3.59375 -21.75 L 1.796875 -21.8125 L 1.828125 -22.234375 C 2.910156 -22.410156 3.726562 -22.5 4.28125 -22.5 C 4.84375 -22.5 5.222656 -22.367188 5.421875 -22.109375 C 5.628906 -21.847656 5.734375 -21.566406 5.734375 -21.265625 Z M 5.734375 -21.265625 "/></g></g></g><g fill="#ffffff" fill-opacity="1"><g transform="translate(136.512115, 252.760471)"><g><path d="M 10.796875 -1.140625 L 10.703125 -1.140625 C 8.910156 -0.296875 7.160156 0.125 5.453125 0.125 C 2.796875 0.125 1.390625 -0.925781 1.234375 -3.03125 C 1.210938 -3.164062 1.203125 -3.296875 1.203125 -3.421875 C 1.203125 -4.960938 2.210938 -5.992188 4.234375 -6.515625 C 5.429688 -6.773438 7.585938 -7.082031 10.703125 -7.4375 L 10.703125 -10.078125 C 10.703125 -10.921875 10.601562 -11.640625 10.40625 -12.234375 C 10.207031 -12.835938 9.988281 -13.285156 9.75 -13.578125 C 9.507812 -13.867188 9.195312 -14.09375 8.8125 -14.25 C 8.332031 -14.445312 7.796875 -14.546875 7.203125 -14.546875 C 6.617188 -14.546875 5.945312 -14.394531 5.1875 -14.09375 C 4.09375 -13.632812 3.113281 -13.054688 2.25 -12.359375 L 2.125 -10.015625 L 1.5625 -9.875 L 1.5625 -13.5 L 1.859375 -13.625 C 3.421875 -14.300781 4.609375 -14.707031 5.421875 -14.84375 C 6.242188 -14.988281 6.84375 -15.066406 7.21875 -15.078125 C 7.601562 -15.085938 7.96875 -15.082031 8.3125 -15.0625 C 8.664062 -15.039062 9.125 -14.945312 9.6875 -14.78125 C 10.25 -14.625 10.734375 -14.398438 11.140625 -14.109375 C 11.554688 -13.828125 11.910156 -13.394531 12.203125 -12.8125 C 12.503906 -12.226562 12.65625 -11.535156 12.65625 -10.734375 L 12.65625 -1.5625 C 12.65625 -0.9375 12.816406 -0.625 13.140625 -0.625 L 14.96875 -0.546875 L 14.9375 -0.09375 C 13.820312 0.0703125 12.820312 0.15625 11.9375 0.15625 C 11.695312 0.132812 11.445312 0.0078125 11.1875 -0.21875 C 10.925781 -0.445312 10.796875 -0.753906 10.796875 -1.140625 Z M 6 -0.359375 C 7.476562 -0.359375 9.046875 -0.878906 10.703125 -1.921875 L 10.703125 -6.875 C 7.703125 -6.769531 5.816406 -6.59375 5.046875 -6.34375 C 4.285156 -6.09375 3.757812 -5.703125 3.46875 -5.171875 C 3.175781 -4.640625 3.03125 -4.113281 3.03125 -3.59375 C 3.03125 -3.5 3.03125 -3.398438 3.03125 -3.296875 C 3.09375 -2.253906 3.398438 -1.503906 3.953125 -1.046875 C 4.515625 -0.585938 5.195312 -0.359375 6 -0.359375 Z M 6 -0.359375 "/></g></g></g><g fill="#ffffff" fill-opacity="1"><g transform="translate(152.6821, 252.760471)"><g><path d="M 8.046875 -0.5625 L 9.203125 -0.625 L 9.296875 -0.328125 C 9.273438 -0.328125 9.132812 -0.296875 8.875 -0.234375 C 8.28125 -0.0976562 7.613281 -0.03125 6.875 -0.03125 C 6.1875 -0.0703125 5.5625 -0.1875 5 -0.375 C 4.445312 -0.5625 3.929688 -0.957031 3.453125 -1.5625 C 2.972656 -2.175781 2.734375 -2.96875 2.734375 -3.9375 L 2.734375 -14.453125 L 1.203125 -14.453125 L 1.4375 -14.703125 L 2.765625 -14.96875 L 3 -17.84375 L 4.6875 -18 L 4.6875 -15 L 8.3125 -15 L 8.3125 -14.453125 L 4.6875 -14.453125 L 4.6875 -4.4375 C 4.6875 -2.914062 5.003906 -1.890625 5.640625 -1.359375 C 6.273438 -0.828125 7.078125 -0.5625 8.046875 -0.5625 Z M 8.046875 -0.5625 "/></g></g></g><g fill="#ffffff" fill-opacity="1"><g transform="translate(163.182088, 252.760471)"><g><path d="M 5.453125 -0.359375 C 5.578125 -0.359375 5.695312 -0.367188 5.8125 -0.390625 C 6.851562 -0.410156 7.722656 -0.734375 8.421875 -1.359375 C 9.128906 -1.992188 9.484375 -2.921875 9.484375 -4.140625 C 9.484375 -5.335938 8.539062 -6.207031 6.65625 -6.75 C 5.875 -6.96875 5.09375 -7.207031 4.3125 -7.46875 C 3.539062 -7.726562 2.878906 -8.140625 2.328125 -8.703125 C 1.773438 -9.265625 1.5 -9.992188 1.5 -10.890625 C 1.5 -12.171875 1.988281 -13.195312 2.96875 -13.96875 C 3.945312 -14.738281 5.1875 -15.125 6.6875 -15.125 C 7.8125 -15.125 8.941406 -14.921875 10.078125 -14.515625 L 10.625 -14.3125 L 10.625 -10.859375 L 10.046875 -10.65625 L 9.9375 -13.203125 C 8.769531 -14.117188 7.796875 -14.578125 7.015625 -14.578125 C 5.921875 -14.578125 5.050781 -14.25 4.40625 -13.59375 C 3.769531 -12.945312 3.453125 -12.085938 3.453125 -11.015625 C 3.453125 -10.390625 3.722656 -9.882812 4.265625 -9.5 C 4.816406 -9.125 5.484375 -8.828125 6.265625 -8.609375 C 7.046875 -8.390625 7.828125 -8.144531 8.609375 -7.875 C 9.390625 -7.601562 10.054688 -7.160156 10.609375 -6.546875 C 11.160156 -5.941406 11.4375 -5.148438 11.4375 -4.171875 C 11.4375 -2.847656 10.9375 -1.800781 9.9375 -1.03125 C 8.945312 -0.257812 7.539062 0.125 5.71875 0.125 C 3.90625 0.125 2.398438 -0.304688 1.203125 -1.171875 L 1.203125 -4.625 L 1.734375 -4.828125 L 1.890625 -2.28125 C 2.171875 -1.757812 2.675781 -1.304688 3.40625 -0.921875 C 4.132812 -0.546875 4.816406 -0.359375 5.453125 -0.359375 Z M 5.453125 -0.359375 "/></g></g></g><g fill="#ffffff" fill-opacity="1"><g transform="translate(175.812073, 252.760471)"><g><path d="M 8.34375 0.125 C 6.257812 0.125 4.570312 -0.472656 3.28125 -1.671875 C 1.988281 -2.878906 1.34375 -4.71875 1.34375 -7.1875 C 1.34375 -9.65625 2.023438 -11.59375 3.390625 -13 C 4.765625 -14.414062 6.492188 -15.125 8.578125 -15.125 C 10.660156 -15.125 12.347656 -14.519531 13.640625 -13.3125 C 14.941406 -12.113281 15.59375 -10.28125 15.59375 -7.8125 C 15.59375 -5.34375 14.90625 -3.398438 13.53125 -1.984375 C 12.164062 -0.578125 10.4375 0.125 8.34375 0.125 Z M 8.546875 -14.578125 C 7.046875 -14.578125 5.796875 -13.925781 4.796875 -12.625 C 3.796875 -11.332031 3.296875 -9.566406 3.296875 -7.328125 C 3.296875 -5.097656 3.769531 -3.390625 4.71875 -2.203125 C 5.675781 -1.015625 6.90625 -0.421875 8.40625 -0.421875 C 9.90625 -0.421875 11.15625 -1.066406 12.15625 -2.359375 C 13.15625 -3.660156 13.65625 -5.421875 13.65625 -7.640625 C 13.65625 -9.867188 13.175781 -11.582031 12.21875 -12.78125 C 11.269531 -13.976562 10.046875 -14.578125 8.546875 -14.578125 Z M 8.546875 -14.578125 "/></g></g></g><g fill="#ffffff" fill-opacity="1"><g transform="translate(192.762054, 252.760471)"><g><path d="M 3.296875 -6.90625 C 3.296875 -2.582031 4.976562 -0.421875 8.34375 -0.421875 C 9.21875 -0.421875 10.15625 -0.515625 11.15625 -0.703125 C 12.15625 -0.890625 12.796875 -1.066406 13.078125 -1.234375 L 13.296875 -0.9375 C 12.828125 -0.632812 12.066406 -0.378906 11.015625 -0.171875 C 9.972656 0.0234375 9.015625 0.125 8.140625 0.125 C 7.273438 0.125 6.492188 0.0351562 5.796875 -0.140625 C 5.109375 -0.328125 4.40625 -0.648438 3.6875 -1.109375 C 2.96875 -1.566406 2.394531 -2.285156 1.96875 -3.265625 C 1.550781 -4.242188 1.34375 -5.445312 1.34375 -6.875 C 1.34375 -9.507812 2.023438 -11.53125 3.390625 -12.9375 C 4.804688 -14.394531 6.453125 -15.125 8.328125 -15.125 C 10.210938 -15.125 11.648438 -14.601562 12.640625 -13.5625 C 13.628906 -12.519531 14.125 -11.0625 14.125 -9.1875 C 14.125 -8.78125 14.097656 -8.347656 14.046875 -7.890625 L 3.328125 -7.890625 C 3.304688 -7.671875 3.296875 -7.34375 3.296875 -6.90625 Z M 12.359375 -9.390625 C 12.359375 -10.890625 12.023438 -12.113281 11.359375 -13.0625 C 10.703125 -14.007812 9.804688 -14.484375 8.671875 -14.484375 C 7.191406 -14.484375 5.941406 -13.835938 4.921875 -12.546875 C 4.097656 -11.523438 3.585938 -10.160156 3.390625 -8.453125 L 12.328125 -8.453125 C 12.347656 -8.679688 12.359375 -8.992188 12.359375 -9.390625 Z M 12.359375 -9.390625 "/></g></g></g><g fill="#ffffff" fill-opacity="1"><g transform="translate(207.942034, 252.760471)"><g/></g></g><g fill="#ffffff" fill-opacity="1"><g transform="translate(216.912027, 252.760471)"><g><path d="M 6.8125 -20.40625 L 1.65625 -20.40625 L 1.171875 -16.4375 L 0.59375 -16.6875 L 0.90625 -20.40625 L 0.875 -20.40625 L 0.9375 -20.640625 L 0.953125 -21 L 1.015625 -20.96875 L 1.015625 -21 L 14.640625 -21 L 15.03125 -16.6875 L 14.4375 -16.4375 L 13.953125 -20.40625 L 8.703125 -20.40625 L 8.703125 -0.5625 L 10.890625 -0.453125 C 10.890625 -0.429688 10.878906 -0.28125 10.859375 0 L 4.859375 0.03125 C 4.859375 -0.144531 4.867188 -0.285156 4.890625 -0.390625 L 6.453125 -0.59375 C 6.648438 -0.613281 6.769531 -0.742188 6.8125 -0.984375 Z M 6.8125 -20.40625 "/></g></g></g><g fill="#ffffff" fill-opacity="1"><g transform="translate(232.542012, 252.760471)"><g><path d="M 3.296875 -6.90625 C 3.296875 -2.582031 4.976562 -0.421875 8.34375 -0.421875 C 9.21875 -0.421875 10.15625 -0.515625 11.15625 -0.703125 C 12.15625 -0.890625 12.796875 -1.066406 13.078125 -1.234375 L 13.296875 -0.9375 C 12.828125 -0.632812 12.066406 -0.378906 11.015625 -0.171875 C 9.972656 0.0234375 9.015625 0.125 8.140625 0.125 C 7.273438 0.125 6.492188 0.0351562 5.796875 -0.140625 C 5.109375 -0.328125 4.40625 -0.648438 3.6875 -1.109375 C 2.96875 -1.566406 2.394531 -2.285156 1.96875 -3.265625 C 1.550781 -4.242188 1.34375 -5.445312 1.34375 -6.875 C 1.34375 -9.507812 2.023438 -11.53125 3.390625 -12.9375 C 4.804688 -14.394531 6.453125 -15.125 8.328125 -15.125 C 10.210938 -15.125 11.648438 -14.601562 12.640625 -13.5625 C 13.628906 -12.519531 14.125 -11.0625 14.125 -9.1875 C 14.125 -8.78125 14.097656 -8.347656 14.046875 -7.890625 L 3.328125 -7.890625 C 3.304688 -7.671875 3.296875 -7.34375 3.296875 -6.90625 Z M 12.359375 -9.390625 C 12.359375 -10.890625 12.023438 -12.113281 11.359375 -13.0625 C 10.703125 -14.007812 9.804688 -14.484375 8.671875 -14.484375 C 7.191406 -14.484375 5.941406 -13.835938 4.921875 -12.546875 C 4.097656 -11.523438 3.585938 -10.160156 3.390625 -8.453125 L 12.328125 -8.453125 C 12.347656 -8.679688 12.359375 -8.992188 12.359375 -9.390625 Z M 12.359375 -9.390625 "/></g></g></g><g fill="#ffffff" fill-opacity="1"><g transform="translate(247.721992, 252.760471)"><g><path d="M 5.453125 -21.265625 L 5.453125 -13.796875 C 6.660156 -14.773438 8.003906 -15.265625 9.484375 -15.265625 C 10.835938 -15.265625 12.113281 -14.847656 13.3125 -14.015625 C 13.957031 -13.546875 14.472656 -12.820312 14.859375 -11.84375 C 15.253906 -10.863281 15.453125 -9.675781 15.453125 -8.28125 C 15.453125 -5.625 14.789062 -3.625 13.46875 -2.28125 C 11.96875 -0.757812 10.066406 0 7.765625 0 C 6.910156 0 6.054688 -0.0664062 5.203125 -0.203125 C 4.359375 -0.347656 3.796875 -0.507812 3.515625 -0.6875 L 3.515625 -21.515625 C 3.472656 -21.671875 3.410156 -21.75 3.328125 -21.75 L 1.5 -21.8125 L 1.53125 -22.234375 C 2.789062 -22.410156 3.65625 -22.5 4.125 -22.5 C 4.59375 -22.5 4.929688 -22.367188 5.140625 -22.109375 C 5.347656 -21.847656 5.453125 -21.566406 5.453125 -21.265625 Z M 5.453125 -13.234375 L 5.453125 -0.546875 C 5.992188 -0.359375 6.625 -0.265625 7.34375 -0.265625 C 9.3125 -0.265625 10.828125 -0.953125 11.890625 -2.328125 C 12.960938 -3.710938 13.5 -5.644531 13.5 -8.125 C 13.5 -10.84375 12.957031 -12.675781 11.875 -13.625 C 11.039062 -14.363281 10.070312 -14.734375 8.96875 -14.734375 C 7.863281 -14.734375 6.691406 -14.234375 5.453125 -13.234375 Z M 5.453125 -13.234375 "/></g></g></g><g fill="#ffffff" fill-opacity="1"><g transform="translate(264.521975, 252.760471)"><g><path d="M 8.34375 0.125 C 6.257812 0.125 4.570312 -0.472656 3.28125 -1.671875 C 1.988281 -2.878906 1.34375 -4.71875 1.34375 -7.1875 C 1.34375 -9.65625 2.023438 -11.59375 3.390625 -13 C 4.765625 -14.414062 6.492188 -15.125 8.578125 -15.125 C 10.660156 -15.125 12.347656 -14.519531 13.640625 -13.3125 C 14.941406 -12.113281 15.59375 -10.28125 15.59375 -7.8125 C 15.59375 -5.34375 14.90625 -3.398438 13.53125 -1.984375 C 12.164062 -0.578125 10.4375 0.125 8.34375 0.125 Z M 8.546875 -14.578125 C 7.046875 -14.578125 5.796875 -13.925781 4.796875 -12.625 C 3.796875 -11.332031 3.296875 -9.566406 3.296875 -7.328125 C 3.296875 -5.097656 3.769531 -3.390625 4.71875 -2.203125 C 5.675781 -1.015625 6.90625 -0.421875 8.40625 -0.421875 C 9.90625 -0.421875 11.15625 -1.066406 12.15625 -2.359375 C 13.15625 -3.660156 13.65625 -5.421875 13.65625 -7.640625 C 13.65625 -9.867188 13.175781 -11.582031 12.21875 -12.78125 C 11.269531 -13.976562 10.046875 -14.578125 8.546875 -14.578125 Z M 8.546875 -14.578125 "/></g></g></g><g fill="#ffffff" fill-opacity="1"><g transform="translate(281.471956, 252.760471)"><g><path d="M 1.234375 3.09375 C 1.234375 1.207031 2.375 -0.398438 4.65625 -1.734375 C 3.675781 -2.273438 3.1875 -2.960938 3.1875 -3.796875 C 3.1875 -4.628906 3.582031 -5.273438 4.375 -5.734375 C 2.820312 -6.429688 2.046875 -7.910156 2.046875 -10.171875 C 2.046875 -11.710938 2.625 -12.921875 3.78125 -13.796875 C 4.9375 -14.679688 6.414062 -15.125 8.21875 -15.125 C 9.0625 -15.125 9.863281 -15.019531 10.625 -14.8125 L 15.625 -15.125 L 15.5625 -13.984375 L 12 -14.1875 C 13.300781 -13.351562 13.953125 -12.082031 13.953125 -10.375 C 13.953125 -8.675781 13.398438 -7.375 12.296875 -6.46875 C 11.203125 -5.570312 9.785156 -5.125 8.046875 -5.125 C 6.878906 -5.125 5.925781 -5.226562 5.1875 -5.4375 C 4.851562 -5.050781 4.6875 -4.609375 4.6875 -4.109375 C 4.6875 -3.210938 5.046875 -2.5625 5.765625 -2.15625 C 6.546875 -1.695312 7.925781 -1.296875 9.90625 -0.953125 C 10.363281 -0.878906 10.695312 -0.816406 10.90625 -0.765625 C 11.113281 -0.710938 11.414062 -0.644531 11.8125 -0.5625 C 12.21875 -0.488281 12.519531 -0.414062 12.71875 -0.34375 C 12.914062 -0.269531 13.171875 -0.164062 13.484375 -0.03125 C 13.796875 0.09375 14.03125 0.210938 14.1875 0.328125 C 14.351562 0.453125 14.535156 0.601562 14.734375 0.78125 C 14.929688 0.957031 15.082031 1.15625 15.1875 1.375 C 15.40625 1.894531 15.515625 2.5 15.515625 3.1875 C 15.515625 3.882812 15.300781 4.539062 14.875 5.15625 C 14.457031 5.78125 13.878906 6.25 13.140625 6.5625 C 11.703125 7.1875 10.050781 7.5 8.1875 7.5 C 5.726562 7.5 3.953125 7.0625 2.859375 6.1875 C 1.773438 5.320312 1.234375 4.289062 1.234375 3.09375 Z M 5.125 -1.5 C 3.832031 -0.0820312 3.1875 1.300781 3.1875 2.65625 C 3.1875 4.019531 3.578125 5.078125 4.359375 5.828125 C 5.148438 6.578125 6.351562 6.953125 7.96875 6.953125 C 9.59375 6.953125 10.929688 6.640625 11.984375 6.015625 C 13.035156 5.398438 13.5625 4.414062 13.5625 3.0625 C 13.5625 1.976562 13.222656 1.1875 12.546875 0.6875 C 11.878906 0.1875 10.9375 -0.179688 9.71875 -0.421875 C 7.257812 -0.878906 5.726562 -1.238281 5.125 -1.5 Z M 8.125 -14.734375 C 6.882812 -14.734375 5.882812 -14.347656 5.125 -13.578125 C 4.363281 -12.804688 3.984375 -11.648438 3.984375 -10.109375 C 3.984375 -8.566406 4.273438 -7.414062 4.859375 -6.65625 C 5.441406 -5.894531 6.382812 -5.515625 7.6875 -5.515625 C 9 -5.515625 10.03125 -5.945312 10.78125 -6.8125 C 11.53125 -7.6875 11.90625 -8.863281 11.90625 -10.34375 C 11.90625 -13.269531 10.644531 -14.734375 8.125 -14.734375 Z M 8.125 -14.734375 "/></g></g></g><g fill="#ffffff" fill-opacity="1"><g transform="translate(298.301934, 252.760471)"><g><path d="M 8.34375 0.125 C 6.257812 0.125 4.570312 -0.472656 3.28125 -1.671875 C 1.988281 -2.878906 1.34375 -4.71875 1.34375 -7.1875 C 1.34375 -9.65625 2.023438 -11.59375 3.390625 -13 C 4.765625 -14.414062 6.492188 -15.125 8.578125 -15.125 C 10.660156 -15.125 12.347656 -14.519531 13.640625 -13.3125 C 14.941406 -12.113281 15.59375 -10.28125 15.59375 -7.8125 C 15.59375 -5.34375 14.90625 -3.398438 13.53125 -1.984375 C 12.164062 -0.578125 10.4375 0.125 8.34375 0.125 Z M 8.546875 -14.578125 C 7.046875 -14.578125 5.796875 -13.925781 4.796875 -12.625 C 3.796875 -11.332031 3.296875 -9.566406 3.296875 -7.328125 C 3.296875 -5.097656 3.769531 -3.390625 4.71875 -2.203125 C 5.675781 -1.015625 6.90625 -0.421875 8.40625 -0.421875 C 9.90625 -0.421875 11.15625 -1.066406 12.15625 -2.359375 C 13.15625 -3.660156 13.65625 -5.421875 13.65625 -7.640625 C 13.65625 -9.867188 13.175781 -11.582031 12.21875 -12.78125 C 11.269531 -13.976562 10.046875 -14.578125 8.546875 -14.578125 Z M 8.546875 -14.578125 "/></g></g></g><g fill="#fff9f7" fill-opacity="1"><g transform="translate(100.385513, 269.860441)"><g><path d="M 1.359375 0 L 0.90625 0 L 0.90625 -6.421875 L 4.4375 -6.421875 L 4.4375 -6.015625 L 1.359375 -6.015625 L 1.359375 -3.28125 L 4.265625 -3.28125 L 4.265625 -2.875 L 1.359375 -2.875 Z M 1.359375 0 "/></g></g></g><g fill="#fff9f7" fill-opacity="1"><g transform="translate(108.503151, 269.860441)"><g><path d="M 5.640625 -6.421875 L 5.640625 -2.265625 C 5.640625 -1.523438 5.421875 -0.945312 4.984375 -0.53125 C 4.554688 -0.113281 3.960938 0.09375 3.203125 0.09375 C 2.460938 0.09375 1.878906 -0.113281 1.453125 -0.53125 C 1.035156 -0.957031 0.828125 -1.539062 0.828125 -2.28125 L 0.828125 -6.421875 L 1.28125 -6.421875 L 1.28125 -2.265625 C 1.28125 -1.648438 1.453125 -1.171875 1.796875 -0.828125 C 2.140625 -0.484375 2.625 -0.3125 3.25 -0.3125 C 3.863281 -0.3125 4.335938 -0.476562 4.671875 -0.8125 C 5.015625 -1.15625 5.1875 -1.625 5.1875 -2.21875 L 5.1875 -6.421875 Z M 5.640625 -6.421875 "/></g></g></g><g fill="#fff9f7" fill-opacity="1"><g transform="translate(118.576355, 269.860441)"><g><path d="M 0.90625 0 L 0.90625 -6.421875 L 1.359375 -6.421875 L 1.359375 -0.421875 L 4.421875 -0.421875 L 4.421875 0 Z M 0.90625 0 "/></g></g></g><g fill="#fff9f7" fill-opacity="1"><g transform="translate(126.795068, 269.860441)"><g><path d="M 0.90625 0 L 0.90625 -6.421875 L 1.359375 -6.421875 L 1.359375 -0.421875 L 4.421875 -0.421875 L 4.421875 0 Z M 0.90625 0 "/></g></g></g><g fill="#fff9f7" fill-opacity="1"><g transform="translate(135.013779, 269.860441)"><g><path d="M 0.40625 -2.25 L 0.40625 -2.609375 L 2.484375 -2.609375 L 2.484375 -2.25 Z M 0.40625 -2.25 "/></g></g></g><g fill="#fff9f7" fill-opacity="1"><g transform="translate(141.509834, 269.860441)"><g><path d="M 4.453125 -1.65625 C 4.453125 -1.125 4.253906 -0.695312 3.859375 -0.375 C 3.472656 -0.0625 2.953125 0.09375 2.296875 0.09375 C 1.503906 0.09375 0.898438 0.00390625 0.484375 -0.171875 L 0.484375 -0.625 C 0.953125 -0.425781 1.546875 -0.328125 2.265625 -0.328125 C 2.785156 -0.328125 3.203125 -0.445312 3.515625 -0.6875 C 3.828125 -0.925781 3.984375 -1.242188 3.984375 -1.640625 C 3.984375 -1.878906 3.929688 -2.078125 3.828125 -2.234375 C 3.722656 -2.398438 3.550781 -2.546875 3.3125 -2.671875 C 3.082031 -2.804688 2.742188 -2.953125 2.296875 -3.109375 C 1.640625 -3.335938 1.1875 -3.582031 0.9375 -3.84375 C 0.6875 -4.101562 0.5625 -4.453125 0.5625 -4.890625 C 0.5625 -5.367188 0.75 -5.757812 1.125 -6.0625 C 1.507812 -6.363281 1.992188 -6.515625 2.578125 -6.515625 C 3.179688 -6.515625 3.75 -6.398438 4.28125 -6.171875 L 4.125 -5.78125 C 3.59375 -6.007812 3.082031 -6.125 2.59375 -6.125 C 2.113281 -6.125 1.734375 -6.015625 1.453125 -5.796875 C 1.171875 -5.578125 1.03125 -5.273438 1.03125 -4.890625 C 1.03125 -4.660156 1.070312 -4.46875 1.15625 -4.3125 C 1.25 -4.15625 1.394531 -4.015625 1.59375 -3.890625 C 1.789062 -3.773438 2.128906 -3.632812 2.609375 -3.46875 C 3.109375 -3.289062 3.484375 -3.117188 3.734375 -2.953125 C 3.984375 -2.796875 4.164062 -2.613281 4.28125 -2.40625 C 4.394531 -2.195312 4.453125 -1.945312 4.453125 -1.65625 Z M 4.453125 -1.65625 "/></g></g></g><g fill="#fff9f7" fill-opacity="1"><g transform="translate(150.014193, 269.860441)"><g><path d="M 2.578125 0 L 2.125 0 L 2.125 -6 L 0.046875 -6 L 0.046875 -6.421875 L 4.671875 -6.421875 L 4.671875 -6 L 2.578125 -6 Z M 2.578125 0 "/></g></g></g><g fill="#fff9f7" fill-opacity="1"><g transform="translate(158.329584, 269.860441)"><g><path d="M 4 -2.265625 L 1.390625 -2.265625 L 0.5 0 L 0 0 L 2.578125 -6.453125 L 2.875 -6.453125 L 5.40625 0 L 4.890625 0 Z M 1.5625 -2.671875 L 3.859375 -2.671875 L 2.984375 -4.984375 C 2.910156 -5.171875 2.820312 -5.425781 2.71875 -5.75 C 2.632812 -5.46875 2.546875 -5.210938 2.453125 -4.984375 Z M 1.5625 -2.671875 "/></g></g></g><g fill="#fff9f7" fill-opacity="1"><g transform="translate(167.330522, 269.860441)"><g><path d="M 3.65625 -6.109375 C 2.84375 -6.109375 2.207031 -5.847656 1.75 -5.328125 C 1.289062 -4.816406 1.0625 -4.113281 1.0625 -3.21875 C 1.0625 -2.300781 1.273438 -1.585938 1.703125 -1.078125 C 2.140625 -0.578125 2.765625 -0.328125 3.578125 -0.328125 C 4.117188 -0.328125 4.613281 -0.394531 5.0625 -0.53125 L 5.0625 -0.140625 C 4.644531 0.015625 4.113281 0.09375 3.46875 0.09375 C 2.570312 0.09375 1.863281 -0.195312 1.34375 -0.78125 C 0.820312 -1.363281 0.5625 -2.179688 0.5625 -3.234375 C 0.5625 -3.878906 0.6875 -4.453125 0.9375 -4.953125 C 1.1875 -5.453125 1.539062 -5.835938 2 -6.109375 C 2.46875 -6.378906 3.007812 -6.515625 3.625 -6.515625 C 4.25 -6.515625 4.8125 -6.398438 5.3125 -6.171875 L 5.125 -5.765625 C 4.65625 -5.992188 4.164062 -6.109375 3.65625 -6.109375 Z M 3.65625 -6.109375 "/></g></g></g><g fill="#fff9f7" fill-opacity="1"><g transform="translate(176.520424, 269.860441)"><g><path d="M 5.234375 0 L 4.6875 0 L 2.21875 -3.390625 L 1.359375 -2.640625 L 1.359375 0 L 0.90625 0 L 0.90625 -6.421875 L 1.359375 -6.421875 L 1.359375 -3.078125 L 2.0625 -3.796875 L 4.59375 -6.421875 L 5.15625 -6.421875 L 2.53125 -3.703125 Z M 5.234375 0 "/></g></g></g><g fill="#fff9f7" fill-opacity="1"><g transform="translate(185.349975, 269.860441)"><g/></g></g><g fill="#fff9f7" fill-opacity="1"><g transform="translate(191.287925, 269.860441)"><g><path d="M 5.78125 -3.28125 C 5.78125 -2.195312 5.5 -1.378906 4.9375 -0.828125 C 4.375 -0.273438 3.546875 0 2.453125 0 L 0.90625 0 L 0.90625 -6.421875 L 2.640625 -6.421875 C 3.671875 -6.421875 4.453125 -6.148438 4.984375 -5.609375 C 5.515625 -5.078125 5.78125 -4.300781 5.78125 -3.28125 Z M 5.296875 -3.25 C 5.296875 -4.175781 5.0625 -4.867188 4.59375 -5.328125 C 4.125 -5.796875 3.441406 -6.03125 2.546875 -6.03125 L 1.359375 -6.03125 L 1.359375 -0.390625 L 2.421875 -0.390625 C 4.335938 -0.390625 5.296875 -1.34375 5.296875 -3.25 Z M 5.296875 -3.25 "/></g></g></g><g fill="#fff9f7" fill-opacity="1"><g transform="translate(201.242482, 269.860441)"><g><path d="M 4.421875 0 L 0.90625 0 L 0.90625 -6.421875 L 4.421875 -6.421875 L 4.421875 -6.015625 L 1.359375 -6.015625 L 1.359375 -3.578125 L 4.25 -3.578125 L 4.25 -3.171875 L 1.359375 -3.171875 L 1.359375 -0.40625 L 4.421875 -0.40625 Z M 4.421875 0 "/></g></g></g><g fill="#fff9f7" fill-opacity="1"><g transform="translate(209.808361, 269.860441)"><g><path d="M 4.703125 -6.421875 L 5.1875 -6.421875 L 2.796875 0 L 2.390625 0 L 0 -6.421875 L 0.484375 -6.421875 L 2.09375 -2.046875 C 2.34375 -1.390625 2.507812 -0.894531 2.59375 -0.5625 C 2.65625 -0.78125 2.769531 -1.125 2.9375 -1.59375 Z M 4.703125 -6.421875 "/></g></g></g><g fill="#fff9f7" fill-opacity="1"><g transform="translate(218.602756, 269.860441)"><g><path d="M 4.421875 0 L 0.90625 0 L 0.90625 -6.421875 L 4.421875 -6.421875 L 4.421875 -6.015625 L 1.359375 -6.015625 L 1.359375 -3.578125 L 4.25 -3.578125 L 4.25 -3.171875 L 1.359375 -3.171875 L 1.359375 -0.40625 L 4.421875 -0.40625 Z M 4.421875 0 "/></g></g></g><g fill="#fff9f7" fill-opacity="1"><g transform="translate(227.168635, 269.860441)"><g><path d="M 0.90625 0 L 0.90625 -6.421875 L 1.359375 -6.421875 L 1.359375 -0.421875 L 4.421875 -0.421875 L 4.421875 0 Z M 0.90625 0 "/></g></g></g><g fill="#fff9f7" fill-opacity="1"><g transform="translate(235.387347, 269.860441)"><g><path d="M 6.3125 -3.21875 C 6.3125 -2.195312 6.054688 -1.390625 5.546875 -0.796875 C 5.035156 -0.203125 4.332031 0.09375 3.4375 0.09375 C 2.539062 0.09375 1.835938 -0.203125 1.328125 -0.796875 C 0.816406 -1.390625 0.5625 -2.203125 0.5625 -3.234375 C 0.5625 -4.253906 0.816406 -5.054688 1.328125 -5.640625 C 1.847656 -6.234375 2.554688 -6.53125 3.453125 -6.53125 C 4.347656 -6.53125 5.046875 -6.234375 5.546875 -5.640625 C 6.054688 -5.046875 6.3125 -4.238281 6.3125 -3.21875 Z M 1.0625 -3.21875 C 1.0625 -2.300781 1.265625 -1.585938 1.671875 -1.078125 C 2.078125 -0.578125 2.664062 -0.328125 3.4375 -0.328125 C 4.207031 -0.328125 4.796875 -0.578125 5.203125 -1.078125 C 5.617188 -1.578125 5.828125 -2.289062 5.828125 -3.21875 C 5.828125 -4.144531 5.617188 -4.851562 5.203125 -5.34375 C 4.796875 -5.84375 4.210938 -6.09375 3.453125 -6.09375 C 2.679688 -6.09375 2.085938 -5.84375 1.671875 -5.34375 C 1.265625 -4.84375 1.0625 -4.132812 1.0625 -3.21875 Z M 1.0625 -3.21875 "/></g></g></g><g fill="#fff9f7" fill-opacity="1"><g transform="translate(245.864847, 269.860441)"><g><path d="M 4.78125 -4.578125 C 4.78125 -3.953125 4.566406 -3.472656 4.140625 -3.140625 C 3.722656 -2.816406 3.125 -2.65625 2.34375 -2.65625 L 1.359375 -2.65625 L 1.359375 0 L 0.90625 0 L 0.90625 -6.421875 L 2.484375 -6.421875 C 4.015625 -6.421875 4.78125 -5.804688 4.78125 -4.578125 Z M 1.359375 -3.046875 L 2.234375 -3.046875 C 2.960938 -3.046875 3.488281 -3.160156 3.8125 -3.390625 C 4.132812 -3.628906 4.296875 -4.019531 4.296875 -4.5625 C 4.296875 -5.050781 4.140625 -5.414062 3.828125 -5.65625 C 3.523438 -5.894531 3.054688 -6.015625 2.421875 -6.015625 L 1.359375 -6.015625 Z M 1.359375 -3.046875 "/></g></g></g><g fill="#fff9f7" fill-opacity="1"><g transform="translate(254.729554, 269.860441)"><g><path d="M 4.421875 0 L 0.90625 0 L 0.90625 -6.421875 L 4.421875 -6.421875 L 4.421875 -6.015625 L 1.359375 -6.015625 L 1.359375 -3.578125 L 4.25 -3.578125 L 4.25 -3.171875 L 1.359375 -3.171875 L 1.359375 -0.40625 L 4.421875 -0.40625 Z M 4.421875 0 "/></g></g></g><g fill="#fff9f7" fill-opacity="1"><g transform="translate(263.295433, 269.860441)"><g><path d="M 1.359375 -2.796875 L 1.359375 0 L 0.90625 0 L 0.90625 -6.421875 L 2.4375 -6.421875 C 3.238281 -6.421875 3.828125 -6.273438 4.203125 -5.984375 C 4.585938 -5.691406 4.78125 -5.25 4.78125 -4.65625 C 4.78125 -4.226562 4.664062 -3.863281 4.4375 -3.5625 C 4.207031 -3.269531 3.863281 -3.054688 3.40625 -2.921875 L 5.140625 0 L 4.609375 0 L 2.953125 -2.796875 Z M 1.359375 -3.1875 L 2.578125 -3.1875 C 3.117188 -3.1875 3.539062 -3.304688 3.84375 -3.546875 C 4.144531 -3.785156 4.296875 -4.144531 4.296875 -4.625 C 4.296875 -5.113281 4.148438 -5.46875 3.859375 -5.6875 C 3.566406 -5.90625 3.085938 -6.015625 2.421875 -6.015625 L 1.359375 -6.015625 Z M 1.359375 -3.1875 "/></g></g></g><g fill="#fff9f7" fill-opacity="1"><g transform="translate(272.252693, 269.860441)"><g/></g></g></svg>