<svg xmlns="http://www.w3.org/2000/svg" xmlns:xlink="http://www.w3.org/1999/xlink" width="500" zoomAndPan="magnify" viewBox="0 0 375 374.999991" height="500" preserveAspectRatio="xMidYMid meet" version="1.0"><defs><g/></defs><rect x="-37.5" width="450" fill="#ffffff" y="-37.499999" height="449.999989" fill-opacity="1"/><rect x="-37.5" width="450" fill="#252827" y="-37.499999" height="449.999989" fill-opacity="1"/><g fill="#fff9f7" fill-opacity="1"><g transform="translate(133.773966, 167.73951)"><g><path d="M 12 -69.703125 L 12 -13.90625 L 46.90625 -69.90625 C 46.96875 -70.03125 47.097656 -70.0625 47.296875 -70 C 47.429688 -69.863281 47.46875 -69.726562 47.40625 -69.59375 L 28.203125 -38.90625 L 47.40625 -0.09375 C 47.40625 -0.03125 47.367188 0.03125 47.296875 0.09375 C 47.296875 0.226562 47.226562 0.296875 47.09375 0.296875 L 38.09375 0.296875 C 37.96875 0.296875 37.867188 0.226562 37.796875 0.09375 L 22.796875 -30.296875 L 12 -12.90625 L 12 0 C 12 0.195312 11.929688 0.296875 11.796875 0.296875 L 3.703125 0.296875 C 3.503906 0.296875 3.40625 0.195312 3.40625 0 L 3.40625 -69.703125 C 3.40625 -69.898438 3.503906 -70 3.703125 -70 L 11.796875 -70 C 11.929688 -70 12 -69.898438 12 -69.703125 Z M 12 -69.703125 "/></g></g></g><g fill="#fff9f7" fill-opacity="1"><g transform="translate(182.830905, 205.760466)"><g><path d="M 3.40625 -0.09375 L 20.90625 -56.203125 L 25.09375 -69.796875 C 25.164062 -69.796875 25.203125 -69.832031 25.203125 -69.90625 C 25.203125 -69.90625 25.203125 -69.9375 25.203125 -70 C 25.265625 -70 25.296875 -70 25.296875 -70 C 25.367188 -70 25.367188 -70 25.296875 -70 C 25.367188 -70 25.40625 -70 25.40625 -70 C 25.40625 -70 25.4375 -70 25.5 -70 C 25.5 -70 25.53125 -70 25.59375 -70 C 25.59375 -69.9375 25.59375 -69.90625 25.59375 -69.90625 C 25.59375 -69.832031 25.628906 -69.796875 25.703125 -69.796875 L 47.40625 -0.09375 C 47.40625 -0.03125 47.367188 0.0664062 47.296875 0.203125 C 47.234375 0.265625 47.164062 0.296875 47.09375 0.296875 L 38.59375 0.296875 C 38.46875 0.296875 38.40625 0.226562 38.40625 0.09375 L 21.203125 -55.203125 L 3.90625 0.09375 C 3.90625 0.226562 3.835938 0.296875 3.703125 0.296875 C 3.628906 0.296875 3.59375 0.296875 3.59375 0.296875 C 3.394531 0.234375 3.332031 0.101562 3.40625 -0.09375 Z M 3.40625 -0.09375 "/></g></g></g><g fill="#fff9f7" fill-opacity="1"><g transform="translate(89.203124, 252.760471)"><g><path d="M 16.984375 -21 C 16.984375 -20.976562 16.992188 -20.828125 17.015625 -20.546875 L 14.453125 -20.3125 L 7.171875 -11.8125 L 16.046875 -0.546875 L 17.453125 -0.453125 C 17.453125 -0.429688 17.445312 -0.28125 17.4375 0 L 14.1875 0.03125 L 5.515625 -10.921875 L 5.484375 -10.953125 L 5.484375 -0.5625 L 7.53125 -0.453125 C 7.53125 -0.429688 7.519531 -0.28125 7.5 0 L 1.5 0.03125 C 1.5 -0.144531 1.507812 -0.285156 1.53125 -0.390625 L 3.09375 -0.59375 C 3.289062 -0.613281 3.410156 -0.742188 3.453125 -0.984375 L 3.453125 -19.984375 C 3.367188 -20.222656 3.25 -20.351562 3.09375 -20.375 L 1.53125 -20.515625 C 1.507812 -20.640625 1.5 -20.789062 1.5 -20.96875 L 7.5 -21 C 7.5 -20.976562 7.507812 -20.828125 7.53125 -20.546875 L 5.484375 -20.375 L 5.484375 -10.984375 L 5.546875 -11.015625 L 12.90625 -19.796875 C 13.0625 -20.117188 13 -20.3125 12.71875 -20.375 L 11.15625 -20.515625 C 11.132812 -20.640625 11.125 -20.789062 11.125 -20.96875 Z M 5.484375 -10.984375 L 5.484375 -10.953125 Z M 5.484375 -10.984375 "/></g></g></g><g fill="#fff9f7" fill-opacity="1"><g transform="translate(107.263101, 252.760471)"><g><path d="M 8.34375 0.125 C 6.257812 0.125 4.570312 -0.472656 3.28125 -1.671875 C 1.988281 -2.878906 1.34375 -4.71875 1.34375 -7.1875 C 1.34375 -9.65625 2.023438 -11.59375 3.390625 -13 C 4.765625 -14.414062 6.492188 -15.125 8.578125 -15.125 C 10.660156 -15.125 12.347656 -14.519531 13.640625 -13.3125 C 14.941406 -12.113281 15.59375 -10.28125 15.59375 -7.8125 C 15.59375 -5.34375 14.90625 -3.398438 13.53125 -1.984375 C 12.164062 -0.578125 10.4375 0.125 8.34375 0.125 Z M 8.546875 -14.578125 C 7.046875 -14.578125 5.796875 -13.925781 4.796875 -12.625 C 3.796875 -11.332031 3.296875 -9.566406 3.296875 -7.328125 C 3.296875 -5.097656 3.769531 -3.390625 4.71875 -2.203125 C 5.675781 -1.015625 6.90625 -0.421875 8.40625 -0.421875 C 9.90625 -0.421875 11.15625 -1.066406 12.15625 -2.359375 C 13.15625 -3.660156 13.65625 -5.421875 13.65625 -7.640625 C 13.65625 -9.867188 13.175781 -11.582031 12.21875 -12.78125 C 11.269531 -13.976562 10.046875 -14.578125 8.546875 -14.578125 Z M 8.546875 -14.578125 "/></g></g></g><g fill="#fff9f7" fill-opacity="1"><g transform="translate(124.213082, 252.760471)"><g><path d="M 5.4375 -13.765625 L 5.4375 -11.375 C 7.007812 -13.6875 8.554688 -14.863281 10.078125 -14.90625 C 10.203125 -14.90625 10.320312 -14.90625 10.4375 -14.90625 L 12.125 -14.703125 L 11.34375 -12.90625 C 10.957031 -13.28125 10.46875 -13.46875 9.875 -13.46875 C 8.414062 -13.445312 6.9375 -12.476562 5.4375 -10.5625 L 5.4375 -0.59375 L 7.984375 -0.453125 C 7.984375 -0.429688 7.972656 -0.28125 7.953125 0 L 1.65625 0.03125 C 1.65625 -0.144531 1.664062 -0.285156 1.6875 -0.390625 L 3.234375 -0.59375 C 3.398438 -0.613281 3.484375 -0.753906 3.484375 -1.015625 L 3.484375 -14.046875 C 3.441406 -14.179688 3.378906 -14.25 3.296875 -14.25 L 1.5 -14.3125 L 1.53125 -14.734375 C 2.613281 -14.910156 3.429688 -15 3.984375 -15 C 4.546875 -15 4.925781 -14.867188 5.125 -14.609375 C 5.332031 -14.347656 5.4375 -14.066406 5.4375 -13.765625 Z M 5.4375 -13.765625 "/></g></g></g><g fill="#fff9f7" fill-opacity="1"><g transform="translate(137.533065, 252.760471)"><g><path d="M 5.734375 -13.765625 L 5.734375 -0.59375 L 7.984375 -0.453125 C 7.984375 -0.429688 7.972656 -0.28125 7.953125 0 L 1.953125 0.03125 C 1.953125 -0.144531 1.960938 -0.285156 1.984375 -0.390625 L 3.546875 -0.59375 C 3.660156 -0.59375 3.738281 -0.6875 3.78125 -0.875 L 3.78125 -14.046875 C 3.738281 -14.179688 3.675781 -14.25 3.59375 -14.25 L 1.796875 -14.3125 L 1.828125 -14.734375 C 2.910156 -14.910156 3.726562 -15 4.28125 -15 C 4.84375 -15 5.222656 -14.867188 5.421875 -14.609375 C 5.628906 -14.347656 5.734375 -14.066406 5.734375 -13.765625 Z M 4.703125 -19.015625 C 4.304688 -19.015625 4 -19.140625 3.78125 -19.390625 C 3.5625 -19.640625 3.453125 -19.96875 3.453125 -20.375 C 3.453125 -20.789062 3.566406 -21.125 3.796875 -21.375 C 4.023438 -21.625 4.335938 -21.75 4.734375 -21.75 C 5.140625 -21.75 5.46875 -21.625 5.71875 -21.375 C 5.96875 -21.125 6.09375 -20.78125 6.09375 -20.34375 C 6.09375 -19.914062 5.960938 -19.585938 5.703125 -19.359375 C 5.441406 -19.128906 5.109375 -19.015625 4.703125 -19.015625 Z M 4.703125 -19.015625 "/></g></g></g><g fill="#fff9f7" fill-opacity="1"><g transform="translate(147.013052, 252.760471)"><g><path d="M 1.65625 0.03125 L 1.6875 -0.390625 L 3.234375 -0.59375 C 3.421875 -0.613281 3.515625 -0.753906 3.515625 -1.015625 L 3.515625 -14.015625 C 3.472656 -14.171875 3.410156 -14.25 3.328125 -14.25 L 1.5 -14.3125 L 1.53125 -14.734375 C 2.789062 -14.910156 3.640625 -15 4.078125 -15 C 4.878906 -15 5.332031 -14.648438 5.4375 -13.953125 L 5.453125 -13.953125 L 5.453125 -13.3125 C 7.097656 -14.4375 8.671875 -15.03125 10.171875 -15.09375 C 11.628906 -15.09375 12.738281 -14.800781 13.5 -14.21875 C 13.84375 -13.957031 14.144531 -13.550781 14.40625 -13 C 14.675781 -12.457031 14.8125 -11.804688 14.8125 -11.046875 L 14.8125 -0.59375 L 17.0625 -0.453125 C 17.0625 -0.429688 17.054688 -0.28125 17.046875 0 L 11.046875 0.03125 C 11.046875 -0.144531 11.050781 -0.285156 11.0625 -0.390625 L 12.625 -0.59375 C 12.789062 -0.613281 12.875 -0.753906 12.875 -1.015625 L 12.875 -10.296875 C 12.875 -11.085938 12.765625 -11.765625 12.546875 -12.328125 C 12.335938 -12.890625 12.101562 -13.300781 11.84375 -13.5625 C 11.582031 -13.820312 11.265625 -14.019531 10.890625 -14.15625 C 10.453125 -14.320312 9.992188 -14.40625 9.515625 -14.40625 C 8.304688 -14.382812 6.953125 -13.910156 5.453125 -12.984375 L 5.453125 -0.59375 L 7.703125 -0.453125 C 7.703125 -0.429688 7.695312 -0.28125 7.6875 0 Z M 1.65625 0.03125 "/></g></g></g><g fill="#fff9f7" fill-opacity="1"><g transform="translate(165.913038, 252.760471)"><g><path d="M 10.796875 -1.140625 L 10.703125 -1.140625 C 8.910156 -0.296875 7.160156 0.125 5.453125 0.125 C 2.796875 0.125 1.390625 -0.925781 1.234375 -3.03125 C 1.210938 -3.164062 1.203125 -3.296875 1.203125 -3.421875 C 1.203125 -4.960938 2.210938 -5.992188 4.234375 -6.515625 C 5.429688 -6.773438 7.585938 -7.082031 10.703125 -7.4375 L 10.703125 -10.078125 C 10.703125 -10.921875 10.601562 -11.640625 10.40625 -12.234375 C 10.207031 -12.835938 9.988281 -13.285156 9.75 -13.578125 C 9.507812 -13.867188 9.195312 -14.09375 8.8125 -14.25 C 8.332031 -14.445312 7.796875 -14.546875 7.203125 -14.546875 C 6.617188 -14.546875 5.945312 -14.394531 5.1875 -14.09375 C 4.09375 -13.632812 3.113281 -13.054688 2.25 -12.359375 L 2.125 -10.015625 L 1.5625 -9.875 L 1.5625 -13.5 L 1.859375 -13.625 C 3.421875 -14.300781 4.609375 -14.707031 5.421875 -14.84375 C 6.242188 -14.988281 6.84375 -15.066406 7.21875 -15.078125 C 7.601562 -15.085938 7.96875 -15.082031 8.3125 -15.0625 C 8.664062 -15.039062 9.125 -14.945312 9.6875 -14.78125 C 10.25 -14.625 10.734375 -14.398438 11.140625 -14.109375 C 11.554688 -13.828125 11.910156 -13.394531 12.203125 -12.8125 C 12.503906 -12.226562 12.65625 -11.535156 12.65625 -10.734375 L 12.65625 -1.5625 C 12.65625 -0.9375 12.816406 -0.625 13.140625 -0.625 L 14.96875 -0.546875 L 14.9375 -0.09375 C 13.820312 0.0703125 12.820312 0.15625 11.9375 0.15625 C 11.695312 0.132812 11.445312 0.0078125 11.1875 -0.21875 C 10.925781 -0.445312 10.796875 -0.753906 10.796875 -1.140625 Z M 6 -0.359375 C 7.476562 -0.359375 9.046875 -0.878906 10.703125 -1.921875 L 10.703125 -6.875 C 7.703125 -6.769531 5.816406 -6.59375 5.046875 -6.34375 C 4.285156 -6.09375 3.757812 -5.703125 3.46875 -5.171875 C 3.175781 -4.640625 3.03125 -4.113281 3.03125 -3.59375 C 3.03125 -3.5 3.03125 -3.398438 3.03125 -3.296875 C 3.09375 -2.253906 3.398438 -1.503906 3.953125 -1.046875 C 4.515625 -0.585938 5.195312 -0.359375 6 -0.359375 Z M 6 -0.359375 "/></g></g></g><g fill="#fff9f7" fill-opacity="1"><g transform="translate(182.083023, 252.760471)"><g/></g></g><g fill="#fff9f7" fill-opacity="1"><g transform="translate(191.053016, 252.760471)"><g><path d="M 0.453125 0.03125 L 0.484375 -0.390625 L 2.046875 -0.59375 C 2.179688 -0.613281 2.300781 -0.742188 2.40625 -0.984375 L 8.875 -21 L 10.859375 -21 L 17.765625 -0.5625 L 19.828125 -0.453125 C 19.828125 -0.429688 19.816406 -0.28125 19.796875 0 L 13.796875 0.03125 C 13.796875 -0.144531 13.804688 -0.285156 13.828125 -0.390625 L 15.390625 -0.59375 C 15.546875 -0.613281 15.625 -0.734375 15.625 -0.953125 L 13.984375 -5.84375 L 4.625 -5.84375 L 3.03125 -0.625 L 6.515625 -0.453125 C 6.515625 -0.429688 6.503906 -0.28125 6.484375 0 Z M 9.09375 -20.4375 L 4.796875 -6.453125 L 13.765625 -6.453125 Z M 9.09375 -20.4375 "/></g></g></g><g fill="#fff9f7" fill-opacity="1"><g transform="translate(211.152995, 252.760471)"><g><path d="M 1.953125 0.03125 L 1.984375 -0.390625 L 3.546875 -0.59375 C 3.679688 -0.613281 3.769531 -0.71875 3.8125 -0.90625 L 3.8125 -21.421875 C 3.8125 -21.640625 3.75 -21.75 3.625 -21.75 L 1.796875 -21.8125 L 1.828125 -22.234375 C 3.085938 -22.410156 3.953125 -22.5 4.421875 -22.5 C 4.890625 -22.5 5.226562 -22.367188 5.4375 -22.109375 C 5.65625 -21.847656 5.765625 -21.566406 5.765625 -21.265625 L 5.765625 -0.59375 L 8.015625 -0.453125 C 8.015625 -0.429688 8.003906 -0.28125 7.984375 0 Z M 1.953125 0.03125 "/></g></g></g><g fill="#fff9f7" fill-opacity="1"><g transform="translate(220.362982, 252.760471)"><g><path d="M 8.34375 0.125 C 6.257812 0.125 4.570312 -0.472656 3.28125 -1.671875 C 1.988281 -2.878906 1.34375 -4.71875 1.34375 -7.1875 C 1.34375 -9.65625 2.023438 -11.59375 3.390625 -13 C 4.765625 -14.414062 6.492188 -15.125 8.578125 -15.125 C 10.660156 -15.125 12.347656 -14.519531 13.640625 -13.3125 C 14.941406 -12.113281 15.59375 -10.28125 15.59375 -7.8125 C 15.59375 -5.34375 14.90625 -3.398438 13.53125 -1.984375 C 12.164062 -0.578125 10.4375 0.125 8.34375 0.125 Z M 8.546875 -14.578125 C 7.046875 -14.578125 5.796875 -13.925781 4.796875 -12.625 C 3.796875 -11.332031 3.296875 -9.566406 3.296875 -7.328125 C 3.296875 -5.097656 3.769531 -3.390625 4.71875 -2.203125 C 5.675781 -1.015625 6.90625 -0.421875 8.40625 -0.421875 C 9.90625 -0.421875 11.15625 -1.066406 12.15625 -2.359375 C 13.15625 -3.660156 13.65625 -5.421875 13.65625 -7.640625 C 13.65625 -9.867188 13.175781 -11.582031 12.21875 -12.78125 C 11.269531 -13.976562 10.046875 -14.578125 8.546875 -14.578125 Z M 8.546875 -14.578125 "/></g></g></g><g fill="#fff9f7" fill-opacity="1"><g transform="translate(237.312962, 252.760471)"><g><path d="M 1.65625 0.03125 L 1.6875 -0.390625 L 3.234375 -0.59375 C 3.421875 -0.613281 3.515625 -0.753906 3.515625 -1.015625 L 3.515625 -14.015625 C 3.472656 -14.171875 3.410156 -14.25 3.328125 -14.25 L 1.5 -14.3125 L 1.53125 -14.734375 C 2.789062 -14.910156 3.640625 -15 4.078125 -15 C 4.878906 -15 5.332031 -14.648438 5.4375 -13.953125 L 5.453125 -13.953125 L 5.453125 -13.3125 C 7.097656 -14.4375 8.671875 -15.03125 10.171875 -15.09375 C 11.628906 -15.09375 12.738281 -14.800781 13.5 -14.21875 C 13.84375 -13.957031 14.144531 -13.550781 14.40625 -13 C 14.675781 -12.457031 14.8125 -11.804688 14.8125 -11.046875 L 14.8125 -0.59375 L 17.0625 -0.453125 C 17.0625 -0.429688 17.054688 -0.28125 17.046875 0 L 11.046875 0.03125 C 11.046875 -0.144531 11.050781 -0.285156 11.0625 -0.390625 L 12.625 -0.59375 C 12.789062 -0.613281 12.875 -0.753906 12.875 -1.015625 L 12.875 -10.296875 C 12.875 -11.085938 12.765625 -11.765625 12.546875 -12.328125 C 12.335938 -12.890625 12.101562 -13.300781 11.84375 -13.5625 C 11.582031 -13.820312 11.265625 -14.019531 10.890625 -14.15625 C 10.453125 -14.320312 9.992188 -14.40625 9.515625 -14.40625 C 8.304688 -14.382812 6.953125 -13.910156 5.453125 -12.984375 L 5.453125 -0.59375 L 7.703125 -0.453125 C 7.703125 -0.429688 7.695312 -0.28125 7.6875 0 Z M 1.65625 0.03125 "/></g></g></g><g fill="#fff9f7" fill-opacity="1"><g transform="translate(256.212948, 252.760471)"><g><path d="M 5.453125 -0.359375 C 5.578125 -0.359375 5.695312 -0.367188 5.8125 -0.390625 C 6.851562 -0.410156 7.722656 -0.734375 8.421875 -1.359375 C 9.128906 -1.992188 9.484375 -2.921875 9.484375 -4.140625 C 9.484375 -5.335938 8.539062 -6.207031 6.65625 -6.75 C 5.875 -6.96875 5.09375 -7.207031 4.3125 -7.46875 C 3.539062 -7.726562 2.878906 -8.140625 2.328125 -8.703125 C 1.773438 -9.265625 1.5 -9.992188 1.5 -10.890625 C 1.5 -12.171875 1.988281 -13.195312 2.96875 -13.96875 C 3.945312 -14.738281 5.1875 -15.125 6.6875 -15.125 C 7.8125 -15.125 8.941406 -14.921875 10.078125 -14.515625 L 10.625 -14.3125 L 10.625 -10.859375 L 10.046875 -10.65625 L 9.9375 -13.203125 C 8.769531 -14.117188 7.796875 -14.578125 7.015625 -14.578125 C 5.921875 -14.578125 5.050781 -14.25 4.40625 -13.59375 C 3.769531 -12.945312 3.453125 -12.085938 3.453125 -11.015625 C 3.453125 -10.390625 3.722656 -9.882812 4.265625 -9.5 C 4.816406 -9.125 5.484375 -8.828125 6.265625 -8.609375 C 7.046875 -8.390625 7.828125 -8.144531 8.609375 -7.875 C 9.390625 -7.601562 10.054688 -7.160156 10.609375 -6.546875 C 11.160156 -5.941406 11.4375 -5.148438 11.4375 -4.171875 C 11.4375 -2.847656 10.9375 -1.800781 9.9375 -1.03125 C 8.945312 -0.257812 7.539062 0.125 5.71875 0.125 C 3.90625 0.125 2.398438 -0.304688 1.203125 -1.171875 L 1.203125 -4.625 L 1.734375 -4.828125 L 1.890625 -2.28125 C 2.171875 -1.757812 2.675781 -1.304688 3.40625 -0.921875 C 4.132812 -0.546875 4.816406 -0.359375 5.453125 -0.359375 Z M 5.453125 -0.359375 "/></g></g></g><g fill="#fff9f7" fill-opacity="1"><g transform="translate(268.842933, 252.760471)"><g><path d="M 8.34375 0.125 C 6.257812 0.125 4.570312 -0.472656 3.28125 -1.671875 C 1.988281 -2.878906 1.34375 -4.71875 1.34375 -7.1875 C 1.34375 -9.65625 2.023438 -11.59375 3.390625 -13 C 4.765625 -14.414062 6.492188 -15.125 8.578125 -15.125 C 10.660156 -15.125 12.347656 -14.519531 13.640625 -13.3125 C 14.941406 -12.113281 15.59375 -10.28125 15.59375 -7.8125 C 15.59375 -5.34375 14.90625 -3.398438 13.53125 -1.984375 C 12.164062 -0.578125 10.4375 0.125 8.34375 0.125 Z M 8.546875 -14.578125 C 7.046875 -14.578125 5.796875 -13.925781 4.796875 -12.625 C 3.796875 -11.332031 3.296875 -9.566406 3.296875 -7.328125 C 3.296875 -5.097656 3.769531 -3.390625 4.71875 -2.203125 C 5.675781 -1.015625 6.90625 -0.421875 8.40625 -0.421875 C 9.90625 -0.421875 11.15625 -1.066406 12.15625 -2.359375 C 13.15625 -3.660156 13.65625 -5.421875 13.65625 -7.640625 C 13.65625 -9.867188 13.175781 -11.582031 12.21875 -12.78125 C 11.269531 -13.976562 10.046875 -14.578125 8.546875 -14.578125 Z M 8.546875 -14.578125 "/></g></g></g><g fill="#b88917" fill-opacity="1"><g transform="translate(123.752699, 269.86047)"><g><path d="M 4.421875 0 L 0.90625 0 L 0.90625 -6.421875 L 4.421875 -6.421875 L 4.421875 -6.015625 L 1.359375 -6.015625 L 1.359375 -3.578125 L 4.25 -3.578125 L 4.25 -3.171875 L 1.359375 -3.171875 L 1.359375 -0.40625 L 4.421875 -0.40625 Z M 4.421875 0 "/></g></g></g><g fill="#b88917" fill-opacity="1"><g transform="translate(132.318579, 269.86047)"><g><path d="M 4.703125 -6.421875 L 5.1875 -6.421875 L 2.796875 0 L 2.390625 0 L 0 -6.421875 L 0.484375 -6.421875 L 2.09375 -2.046875 C 2.34375 -1.390625 2.507812 -0.894531 2.59375 -0.5625 C 2.65625 -0.78125 2.769531 -1.125 2.9375 -1.59375 Z M 4.703125 -6.421875 "/></g></g></g><g fill="#b88917" fill-opacity="1"><g transform="translate(141.112974, 269.86047)"><g><path d="M 4.421875 0 L 0.90625 0 L 0.90625 -6.421875 L 4.421875 -6.421875 L 4.421875 -6.015625 L 1.359375 -6.015625 L 1.359375 -3.578125 L 4.25 -3.578125 L 4.25 -3.171875 L 1.359375 -3.171875 L 1.359375 -0.40625 L 4.421875 -0.40625 Z M 4.421875 0 "/></g></g></g><g fill="#b88917" fill-opacity="1"><g transform="translate(149.678855, 269.86047)"><g><path d="M 5.578125 0 L 5.125 0 L 1.328125 -5.703125 L 1.28125 -5.703125 C 1.320312 -5.023438 1.34375 -4.515625 1.34375 -4.171875 L 1.34375 0 L 0.90625 0 L 0.90625 -6.421875 L 1.359375 -6.421875 L 5.15625 -0.734375 L 5.1875 -0.734375 C 5.15625 -1.253906 5.140625 -1.753906 5.140625 -2.234375 L 5.140625 -6.421875 L 5.578125 -6.421875 Z M 5.578125 0 "/></g></g></g><g fill="#b88917" fill-opacity="1"><g transform="translate(159.769637, 269.86047)"><g><path d="M 2.578125 0 L 2.125 0 L 2.125 -6 L 0.046875 -6 L 0.046875 -6.421875 L 4.671875 -6.421875 L 4.671875 -6 L 2.578125 -6 Z M 2.578125 0 "/></g></g></g><g fill="#b88917" fill-opacity="1"><g transform="translate(168.085028, 269.86047)"><g/></g></g><g fill="#b88917" fill-opacity="1"><g transform="translate(174.02298, 269.86047)"><g><path d="M 6.3125 -3.21875 C 6.3125 -2.195312 6.054688 -1.390625 5.546875 -0.796875 C 5.035156 -0.203125 4.332031 0.09375 3.4375 0.09375 C 2.539062 0.09375 1.835938 -0.203125 1.328125 -0.796875 C 0.816406 -1.390625 0.5625 -2.203125 0.5625 -3.234375 C 0.5625 -4.253906 0.816406 -5.054688 1.328125 -5.640625 C 1.847656 -6.234375 2.554688 -6.53125 3.453125 -6.53125 C 4.347656 -6.53125 5.046875 -6.234375 5.546875 -5.640625 C 6.054688 -5.046875 6.3125 -4.238281 6.3125 -3.21875 Z M 1.0625 -3.21875 C 1.0625 -2.300781 1.265625 -1.585938 1.671875 -1.078125 C 2.078125 -0.578125 2.664062 -0.328125 3.4375 -0.328125 C 4.207031 -0.328125 4.796875 -0.578125 5.203125 -1.078125 C 5.617188 -1.578125 5.828125 -2.289062 5.828125 -3.21875 C 5.828125 -4.144531 5.617188 -4.851562 5.203125 -5.34375 C 4.796875 -5.84375 4.210938 -6.09375 3.453125 -6.09375 C 2.679688 -6.09375 2.085938 -5.84375 1.671875 -5.34375 C 1.265625 -4.84375 1.0625 -4.132812 1.0625 -3.21875 Z M 1.0625 -3.21875 "/></g></g></g><g fill="#b88917" fill-opacity="1"><g transform="translate(184.50048, 269.86047)"><g><path d="M 1.359375 -2.796875 L 1.359375 0 L 0.90625 0 L 0.90625 -6.421875 L 2.4375 -6.421875 C 3.238281 -6.421875 3.828125 -6.273438 4.203125 -5.984375 C 4.585938 -5.691406 4.78125 -5.25 4.78125 -4.65625 C 4.78125 -4.226562 4.664062 -3.863281 4.4375 -3.5625 C 4.207031 -3.269531 3.863281 -3.054688 3.40625 -2.921875 L 5.140625 0 L 4.609375 0 L 2.953125 -2.796875 Z M 1.359375 -3.1875 L 2.578125 -3.1875 C 3.117188 -3.1875 3.539062 -3.304688 3.84375 -3.546875 C 4.144531 -3.785156 4.296875 -4.144531 4.296875 -4.625 C 4.296875 -5.113281 4.148438 -5.46875 3.859375 -5.6875 C 3.566406 -5.90625 3.085938 -6.015625 2.421875 -6.015625 L 1.359375 -6.015625 Z M 1.359375 -3.1875 "/></g></g></g><g fill="#b88917" fill-opacity="1"><g transform="translate(193.448684, 269.86047)"><g><path d="M 3.4375 -3.234375 L 5.8125 -3.234375 L 5.8125 -0.3125 C 5.1875 -0.0390625 4.484375 0.09375 3.703125 0.09375 C 2.691406 0.09375 1.914062 -0.191406 1.375 -0.765625 C 0.832031 -1.335938 0.5625 -2.148438 0.5625 -3.203125 C 0.5625 -3.859375 0.695312 -4.4375 0.96875 -4.9375 C 1.238281 -5.445312 1.625 -5.835938 2.125 -6.109375 C 2.625 -6.390625 3.195312 -6.53125 3.84375 -6.53125 C 4.539062 -6.53125 5.164062 -6.398438 5.71875 -6.140625 L 5.546875 -5.734375 C 4.992188 -5.992188 4.414062 -6.125 3.8125 -6.125 C 2.96875 -6.125 2.296875 -5.859375 1.796875 -5.328125 C 1.304688 -4.804688 1.0625 -4.101562 1.0625 -3.21875 C 1.0625 -2.25 1.296875 -1.519531 1.765625 -1.03125 C 2.234375 -0.550781 2.925781 -0.3125 3.84375 -0.3125 C 4.4375 -0.3125 4.9375 -0.394531 5.34375 -0.5625 L 5.34375 -2.8125 L 3.4375 -2.8125 Z M 3.4375 -3.234375 "/></g></g></g><g fill="#b88917" fill-opacity="1"><g transform="translate(203.557043, 269.86047)"><g><path d="M 4 -2.265625 L 1.390625 -2.265625 L 0.5 0 L 0 0 L 2.578125 -6.453125 L 2.875 -6.453125 L 5.40625 0 L 4.890625 0 Z M 1.5625 -2.671875 L 3.859375 -2.671875 L 2.984375 -4.984375 C 2.910156 -5.171875 2.820312 -5.425781 2.71875 -5.75 C 2.632812 -5.46875 2.546875 -5.210938 2.453125 -4.984375 Z M 1.5625 -2.671875 "/></g></g></g><g fill="#b88917" fill-opacity="1"><g transform="translate(212.557981, 269.86047)"><g><path d="M 5.578125 0 L 5.125 0 L 1.328125 -5.703125 L 1.28125 -5.703125 C 1.320312 -5.023438 1.34375 -4.515625 1.34375 -4.171875 L 1.34375 0 L 0.90625 0 L 0.90625 -6.421875 L 1.359375 -6.421875 L 5.15625 -0.734375 L 5.1875 -0.734375 C 5.15625 -1.253906 5.140625 -1.753906 5.140625 -2.234375 L 5.140625 -6.421875 L 5.578125 -6.421875 Z M 5.578125 0 "/></g></g></g><g fill="#b88917" fill-opacity="1"><g transform="translate(222.648769, 269.86047)"><g><path d="M 0.90625 0 L 0.90625 -6.421875 L 1.359375 -6.421875 L 1.359375 0 Z M 0.90625 0 "/></g></g></g><g fill="#b88917" fill-opacity="1"><g transform="translate(228.516406, 269.86047)"><g><path d="M 4.828125 0 L 0.359375 0 L 0.359375 -0.328125 L 4.125 -6 L 0.53125 -6 L 0.53125 -6.421875 L 4.71875 -6.421875 L 4.71875 -6.09375 L 0.953125 -0.421875 L 4.828125 -0.421875 Z M 4.828125 0 "/></g></g></g><g fill="#b88917" fill-opacity="1"><g transform="translate(237.302012, 269.86047)"><g><path d="M 4.421875 0 L 0.90625 0 L 0.90625 -6.421875 L 4.421875 -6.421875 L 4.421875 -6.015625 L 1.359375 -6.015625 L 1.359375 -3.578125 L 4.25 -3.578125 L 4.25 -3.171875 L 1.359375 -3.171875 L 1.359375 -0.40625 L 4.421875 -0.40625 Z M 4.421875 0 "/></g></g></g><g fill="#b88917" fill-opacity="1"><g transform="translate(245.867891, 269.86047)"><g><path d="M 1.359375 -2.796875 L 1.359375 0 L 0.90625 0 L 0.90625 -6.421875 L 2.4375 -6.421875 C 3.238281 -6.421875 3.828125 -6.273438 4.203125 -5.984375 C 4.585938 -5.691406 4.78125 -5.25 4.78125 -4.65625 C 4.78125 -4.226562 4.664062 -3.863281 4.4375 -3.5625 C 4.207031 -3.269531 3.863281 -3.054688 3.40625 -2.921875 L 5.140625 0 L 4.609375 0 L 2.953125 -2.796875 Z M 1.359375 -3.1875 L 2.578125 -3.1875 C 3.117188 -3.1875 3.539062 -3.304688 3.84375 -3.546875 C 4.144531 -3.785156 4.296875 -4.144531 4.296875 -4.625 C 4.296875 -5.113281 4.148438 -5.46875 3.859375 -5.6875 C 3.566406 -5.90625 3.085938 -6.015625 2.421875 -6.015625 L 1.359375 -6.015625 Z M 1.359375 -3.1875 "/></g></g></g></svg>